<svg width="53" height="52" viewBox="0 0 53 52" fill="none" xmlns="http://www.w3.org/2000/svg">
    <g clip-path="url(#clip0)">
        <path d="M46.375 19.1665C46.375 19.7411 46.1423 20.2922 45.7282 20.6986C45.3141 21.1049 44.7523 21.3332 44.1667 21.3332H8.83333C8.24765 21.3332 7.68595 21.1049 7.27181 20.6986C6.85766 20.2922 6.625 19.7411 6.625 19.1665C6.625 18.5919 6.85766 18.0408 7.27181 17.6344C7.68595 17.2281 8.24765 16.9998 8.83333 16.9998H19.875V15.9165C19.875 15.0546 20.224 14.2279 20.8452 13.6184C21.4664 13.0089 22.309 12.6665 23.1875 12.6665H29.8125C30.691 12.6665 31.5336 13.0089 32.1548 13.6184C32.776 14.2279 33.125 15.0546 33.125 15.9165V16.9998H44.1667C44.7523 16.9998 45.3141 17.2281 45.7282 17.6344C46.1423 18.0408 46.375 18.5919 46.375 19.1665Z" fill="white"/>
        <path d="M12.1455 25.6665V46.2498C12.1455 47.6864 12.7272 49.0642 13.7625 50.08C14.7979 51.0958 16.2021 51.6665 17.6663 51.6665H35.333C36.7972 51.6665 38.2015 51.0958 39.2368 50.08C40.2722 49.0642 40.8538 47.6864 40.8538 46.2498V25.6665H12.1455ZM24.2913 42.9998C24.2913 43.5745 24.0587 44.1256 23.6445 44.5319C23.2304 44.9382 22.6687 45.1665 22.083 45.1665C21.4973 45.1665 20.9356 44.9382 20.5215 44.5319C20.1073 44.1256 19.8747 43.5745 19.8747 42.9998V34.3332C19.8747 33.7585 20.1073 33.2074 20.5215 32.8011C20.9356 32.3948 21.4973 32.1665 22.083 32.1665C22.6687 32.1665 23.2304 32.3948 23.6445 32.8011C24.0587 33.2074 24.2913 33.7585 24.2913 34.3332V42.9998ZM33.1247 34.3332C33.1247 34.9078 32.892 35.4589 32.4779 35.8652C32.0637 36.2716 31.502 36.4998 30.9163 36.4998C30.3306 36.4998 29.769 36.2716 29.3548 35.8652C28.9407 35.4589 28.708 34.9078 28.708 34.3332C28.708 33.7585 28.9407 33.2074 29.3548 32.8011C29.769 32.3948 30.3306 32.1665 30.9163 32.1665C31.502 32.1665 32.0637 32.3948 32.4779 32.8011C32.892 33.2074 33.1247 33.7585 33.1247 34.3332Z" fill="white"/>
    </g>
    <defs>
        <clipPath id="clip0">
            <rect width="53" height="52" fill="white"/>
        </clipPath>
    </defs>
</svg>
