<svg width="171" height="75" viewBox="0 0 171 75" fill="none" xmlns="http://www.w3.org/2000/svg">
<path d="M4.26143 9.81311L6.92541 9.82164L6.8632 35.0216L4.19921 35.013L4.26143 9.81311ZM36.1845 9.91534L36.1223 35.1153L33.9263 35.1082L17.7769 14.6084L17.7264 35.0564L15.0624 35.0478L15.1247 9.8479L17.3206 9.85493L33.5061 30.3549L33.5566 9.90693L36.1845 9.91534Z" fill="url(#paint0_radial)"/>
<path d="M61.1533 8.4833L61.0874 35.1952L58.6394 35.1874L58.6486 31.4434C57.8775 32.7129 56.8551 33.6817 55.5814 34.3496C54.3318 35.0176 52.915 35.349 51.331 35.344C49.555 35.3383 47.948 34.9251 46.51 34.1045C45.072 33.2839 43.9469 32.1403 43.1345 30.6737C42.3221 29.2071 41.9182 27.5378 41.9228 25.6658C41.9275 23.7938 42.3396 22.1271 43.1592 20.6657C43.9788 19.2044 45.1096 18.08 46.5515 17.2926C47.9935 16.4812 49.6025 16.0783 51.3785 16.084C52.9145 16.089 54.2937 16.4174 55.5161 17.0693C56.7625 17.6973 57.7803 18.6245 58.5692 19.8511L58.5973 8.47511L61.1533 8.4833ZM51.5526 33.0767C52.8726 33.0809 54.0613 32.7847 55.1188 32.1881C56.2003 31.5676 57.0425 30.6942 57.6452 29.5682C58.272 28.4422 58.5872 27.1592 58.5907 25.7192C58.5943 24.2792 58.2855 22.9942 57.6643 21.8642C57.067 20.7343 56.2292 19.8676 55.1507 19.2641C54.0962 18.6367 52.909 18.3209 51.589 18.3167C50.245 18.3124 49.0322 18.6205 47.9507 19.2411C46.8932 19.8377 46.0511 20.699 45.4243 21.825C44.8215 22.9511 44.5184 24.2341 44.5148 25.6741C44.5113 27.1141 44.8081 28.3991 45.4053 29.529C46.0265 30.659 46.8643 31.5377 47.9188 32.165C48.9973 32.7685 50.2086 33.0724 51.5526 33.0767ZM75.9453 35.4228C74.1213 35.417 72.4783 35.0037 71.0163 34.183C69.5544 33.3383 68.4053 32.1826 67.5689 30.716C66.7325 29.2493 66.3166 27.5919 66.3211 25.7439C66.3257 23.8959 66.7498 22.2413 67.5934 20.78C68.437 19.3187 69.5918 18.1824 71.0578 17.3711C72.5238 16.5598 74.1688 16.157 75.9928 16.1629C77.8168 16.1687 79.4598 16.582 80.9218 17.4027C82.3838 18.2233 83.5209 19.367 84.3333 20.8336C85.1697 22.3003 85.5856 23.9576 85.581 25.8056C85.5765 27.6536 85.1524 29.3083 84.3088 30.7696C83.4892 32.2309 82.3463 33.3793 80.8803 34.2146C79.4143 35.0259 77.7693 35.4286 75.9453 35.4228ZM75.9509 33.1548C77.2949 33.1591 78.4956 32.863 79.5531 32.2663C80.6346 31.6458 81.4768 30.7725 82.0796 29.6464C82.6823 28.5203 82.9855 27.2373 82.9891 25.7973C82.9926 24.3573 82.6958 23.0724 82.0986 21.9424C81.5014 20.8125 80.6635 19.9458 79.585 19.3424C78.5305 18.715 77.3313 18.3992 75.9873 18.3949C74.6433 18.3905 73.4306 18.6987 72.349 19.3192C71.2915 19.9158 70.4494 20.7771 69.8226 21.9031C69.2199 23.0292 68.9167 24.3122 68.9131 25.7522C68.9096 27.1922 69.2064 28.4772 69.8036 29.6071C70.4248 30.7371 71.2627 31.6158 72.3171 32.2432C73.3956 32.8466 74.6069 33.1505 75.9509 33.1548ZM98.5155 35.4951C96.6915 35.4892 95.0485 35.076 93.5865 34.2553C92.1246 33.4106 90.9754 32.2549 90.1391 30.7882C89.3027 29.3215 88.8868 27.6642 88.8913 25.8162C88.8959 23.9682 89.32 22.3136 90.1636 20.8523C91.0072 19.391 92.162 18.2547 93.628 17.4433C95.094 16.632 96.739 16.2293 98.563 16.2351C100.387 16.241 102.03 16.6542 103.492 17.4749C104.954 18.2956 106.091 19.4393 106.904 20.9059C107.74 22.3726 108.156 24.0299 108.151 25.8779C108.147 27.7259 107.723 29.3805 106.879 30.8418C106.059 32.3032 104.917 33.4516 103.45 34.2869C101.984 35.0982 100.339 35.5009 98.5155 35.4951ZM98.5211 33.2271C99.8651 33.2314 101.066 32.9352 102.123 32.3386C103.205 31.7181 104.047 30.8448 104.65 29.7187C105.253 28.5926 105.556 27.3096 105.559 25.8696C105.563 24.4296 105.266 23.1446 104.669 22.0147C104.072 20.8848 103.234 20.0181 102.155 19.4147C101.101 18.7873 99.9015 18.4714 98.5575 18.4671C97.2135 18.4628 96.0008 18.7709 94.9192 19.3915C93.8617 19.9881 93.0196 20.8494 92.3928 21.9754C91.79 23.1015 91.4869 24.3845 91.4833 25.8245C91.4798 27.2645 91.7766 28.5495 92.3738 29.6794C92.995 30.8094 93.8329 31.6881 94.8873 32.3154C95.9658 32.9189 97.1771 33.2228 98.5211 33.2271ZM115.832 20.1425C116.435 18.8724 117.325 17.9152 118.503 17.271C119.704 16.6268 121.181 16.3076 122.933 16.3132L122.927 18.7972L122.315 18.7592C120.323 18.7528 118.762 19.3598 117.631 20.5802C116.5 21.8006 115.931 23.5148 115.926 25.7228L115.902 35.3708L113.346 35.3626L113.393 16.4266L115.841 16.4345L115.832 20.1425Z" fill="white"/>
<path d="M15.324 41.6086L15.291 54.9085L14.132 54.9048L5.60881 44.0856L5.58207 54.8776L4.17608 54.8731L4.20903 41.5731L5.36803 41.5768L13.9102 52.3961L13.937 41.6041L15.324 41.6086ZM27.9818 51.396L20.5719 51.3724L18.9671 54.9203L17.5041 54.9156L23.617 41.635L25.004 41.6395L31.051 54.9588L29.569 54.9541L27.9818 51.396ZM27.4716 50.2544L24.2974 43.1002L21.0877 50.234L27.4716 50.2544ZM43.6555 41.699L37.7326 54.9801L36.3456 54.9757L30.4886 41.657L32.0086 41.6618L37.0719 53.23L42.2305 41.6944L43.6555 41.699ZM45.5858 41.7051L46.9918 41.7096L46.9588 55.0096L45.5528 55.0051L45.5858 41.7051ZM60.6696 48.4033L62.0186 48.4076L62.006 53.4806C61.384 54.0233 60.6483 54.4389 59.7989 54.7276C58.9496 55.0162 58.0562 55.159 57.1189 55.156C55.7889 55.1518 54.5926 54.8566 53.5301 54.2705C52.4675 53.6845 51.6335 52.8775 51.0281 51.8496C50.4226 50.8089 50.1215 49.649 50.1247 48.3697C50.1278 47.0903 50.4347 45.9386 51.0452 44.9146C51.6558 43.8779 52.4938 43.0699 53.5592 42.4906C54.6247 41.9113 55.8287 41.6238 57.1714 41.6281C58.1847 41.6313 59.1153 41.799 59.9632 42.131C60.811 42.4504 61.5255 42.9277 62.1066 43.5629L61.2304 44.4531C60.1817 43.4111 58.8466 42.8875 57.2253 42.8823C56.1486 42.8788 55.1727 43.1164 54.2975 43.5949C53.435 44.0609 52.7557 44.7174 52.2596 45.5645C51.7636 46.3989 51.5142 47.3354 51.5117 48.3741C51.5091 49.4127 51.7538 50.3509 52.2457 51.1884C52.7376 52.026 53.4137 52.6868 54.2738 53.1709C55.1339 53.655 56.1023 53.8988 57.179 53.9022C58.547 53.9066 59.7068 53.5683 60.6585 52.8873L60.6696 48.4033ZM74.3312 51.5439L66.9212 51.5203L65.3164 55.0682L63.8534 55.0635L69.9664 41.7829L71.3534 41.7874L77.4004 55.1067L75.9184 55.102L74.3312 51.5439ZM73.821 50.4023L70.6467 43.2481L67.437 50.3819L73.821 50.4023ZM81.5465 43.0359L76.8725 43.021L76.8755 41.805L87.6294 41.8393L87.6264 43.0553L82.9525 43.0404L82.9225 55.1243L81.5165 55.1199L81.5465 43.0359ZM89.8756 41.8465L91.2816 41.8509L91.2486 55.1509L89.8426 55.1464L89.8756 41.8465ZM101.39 55.2973C100.072 55.2931 98.8761 54.9979 97.8009 54.4118C96.7384 53.8131 95.9044 52.9998 95.2989 51.9718C94.7061 50.9439 94.4113 49.7903 94.4145 48.511C94.4177 47.2316 94.7182 46.0799 95.3161 45.0558C95.9266 44.0318 96.7646 43.2301 97.83 42.6508C98.9082 42.059 100.106 41.7651 101.423 41.7693C102.741 41.7735 103.924 42.0686 104.974 42.6546C106.037 43.2407 106.871 44.054 107.476 45.0946C108.081 46.1226 108.383 47.2762 108.379 48.5555C108.376 49.8349 108.069 50.9929 107.459 52.0296C106.848 53.0537 106.01 53.8553 104.945 54.4346C103.892 55.0139 102.707 55.3015 101.39 55.2973ZM101.393 54.0433C102.444 54.0466 103.395 53.8153 104.245 53.3494C105.094 52.8707 105.761 52.2142 106.244 51.3797C106.728 50.5326 106.971 49.5897 106.973 48.5511C106.976 47.5124 106.738 46.5743 106.258 45.7368C105.779 44.8866 105.116 44.2258 104.268 43.7544C103.421 43.2704 102.471 43.0267 101.42 43.0233C100.369 43.02 99.4119 43.2576 98.5493 43.7361C97.6995 44.2021 97.0265 44.8586 96.5304 45.7057C96.047 46.5402 95.8041 47.4767 95.8015 48.5154C95.7989 49.5541 96.0372 50.4985 96.5165 51.3487C97.0084 52.1863 97.6781 52.8471 98.5256 53.3311C99.3857 53.8025 100.341 54.0399 101.393 54.0433ZM122.662 41.9511L122.629 55.251L121.47 55.2473L112.947 44.4281L112.92 55.2201L111.514 55.2156L111.547 41.9156L112.706 41.9193L121.249 52.7386L121.275 41.9467L122.662 41.9511Z" fill="white"/>
<defs>
<radialGradient id="paint0_radial" cx="0" cy="0" r="1" gradientUnits="userSpaceOnUse" gradientTransform="translate(85.3349 37.001) rotate(90.1415) scale(36.7281 85.2444)">
<stop stop-color="#4B9CFF"/>
<stop offset="0.75" stop-color="#3F93F9"/>
<stop offset="1" stop-color="#8C31FF" stop-opacity="0.29"/>
</radialGradient>
</defs>
</svg>
