<svg width="40" height="40" viewBox="0 0 34 36" fill="none" xmlns="http://www.w3.org/2000/svg">
 <g clip-path="url(#clip0)">
  <path fill-rule="evenodd" clip-rule="evenodd" d="M3.31815 22.4638L2.16895 31.939C2.16895 32.911 2.91015 33.6958 3.82815 33.6958L12.7837 32.4862C13.0489 32.4502 13.3141 32.3134 13.5181 32.0974C14.0349 31.5502 14.0349 30.6646 13.5181 30.1174L12.0221 28.5334L15.3473 25.0198C15.8981 24.4366 15.8981 23.4934 15.3473 22.9102L12.3621 19.7494C11.8113 19.1662 10.9205 19.1662 10.3697 19.7494L7.05815 23.2558L5.56215 21.679C5.04535 21.1318 4.20895 21.1318 3.69215 21.679C3.48135 21.9022 3.35895 22.183 3.31815 22.4638Z" fill="white"/>
  <path fill-rule="evenodd" clip-rule="evenodd" d="M30.6816 13.5362L31.824 4.061C31.824 3.089 31.0828 2.3042 30.1648 2.3042L21.216 3.521C20.9508 3.557 20.6856 3.6938 20.4816 3.9098C19.9648 4.457 19.9648 5.3426 20.4816 5.8898L21.9776 7.4738L18.6524 10.9874C18.1016 11.5706 18.1016 12.5138 18.6524 13.097L21.6376 16.2578C22.1884 16.841 23.0792 16.841 23.63 16.2578L26.9484 12.7442L28.4444 14.321C28.9612 14.8682 29.7976 14.8682 30.3144 14.321C30.5184 14.105 30.6408 13.817 30.6816 13.5362Z" fill="white"/>
 </g>
 <defs>
  <clipPath id="clip0">
   <rect width="34" height="36" fill="white"/>
  </clipPath>
 </defs>
</svg>
