<svg width="40" height="40" viewBox="0 0 47 47" fill="none" xmlns="http://www.w3.org/2000/svg">
 <g clip-path="url(#clip0)">
  <path fill-rule="evenodd" clip-rule="evenodd" d="M17.1754 35.9225L22.4603 42.763C23.0833 43.3861 24.0875 43.3862 24.7106 42.7631L29.9947 35.9227C30.1495 35.718 30.2459 35.454 30.2418 35.1738C30.2418 34.4711 29.6772 33.9065 28.974 33.9059L26.9492 33.9059L26.9533 29.4086C26.9533 28.6641 26.3506 28.0614 25.6063 28.0615L21.5648 28.0616C20.8199 28.0619 20.2177 28.6641 20.2174 29.409L20.2178 33.9019L18.197 33.9058C17.4942 33.9059 16.9293 34.4709 16.9292 35.1737C16.9251 35.454 17.0212 35.7175 17.1754 35.9225ZM35.701 17.397C35.4964 17.2423 35.2328 17.1463 34.9525 17.1503C34.2498 17.1503 33.6847 17.7155 33.6847 18.4182L33.6806 20.4388L29.1873 20.4388C28.4428 20.4388 27.8401 21.0415 27.8403 21.7859L27.8403 25.8273C27.8398 26.5721 28.4424 27.1748 29.1873 27.1744L33.6847 27.1703V29.195C33.6853 29.8983 34.2498 30.4629 34.9525 30.4629C35.2328 30.4669 35.4963 30.371 35.701 30.2162L42.5418 24.9317C43.1649 24.3087 43.1649 23.3044 42.5418 22.6813L35.701 17.397ZM11.4695 30.2166C11.6747 30.371 11.9382 30.467 12.2184 30.4629C12.9212 30.4628 13.4862 29.8979 13.4863 29.1951L13.4904 27.1744L17.9833 27.1748C18.7281 27.1744 19.3303 26.5722 19.3307 25.8275V21.7858C19.3308 21.0415 18.7281 20.4388 17.9837 20.4388L13.4863 20.4429L13.4863 18.4181C13.4862 17.7153 12.9212 17.1504 12.2184 17.1503C11.9381 17.1463 11.6742 17.2427 11.4696 17.3975L4.62904 22.6815C4.00597 23.3046 4.00597 24.3087 4.62904 24.9318L11.4695 30.2166ZM29.995 11.691L24.7106 4.85025C24.0875 4.22717 23.0833 4.22722 22.4603 4.85029L17.1759 11.6913C17.0212 11.8958 16.9251 12.1593 16.9291 12.4396C16.9292 13.1424 17.4942 13.7073 18.197 13.7074L20.2217 13.7075L20.2177 18.2048C20.2172 18.9496 20.8199 19.5524 21.5647 19.5518L25.6062 19.5519C26.3506 19.552 26.9532 18.9493 26.9533 18.2049L26.9532 13.7115L28.9739 13.7075C29.6766 13.7075 30.2417 13.1423 30.2417 12.4396C30.2458 12.1593 30.1499 11.8958 29.995 11.691Z" fill="white"/>
 </g>
 <defs>
  <clipPath id="clip0">
   <rect width="32.5608" height="32.5608" fill="white" transform="translate(0.561523 23.8066) rotate(-45)"/>
  </clipPath>
 </defs>
</svg>
