<svg width="40" height="40" viewBox="0 0 41 38" fill="none" xmlns="http://www.w3.org/2000/svg">
    <path d="M40.0361 16.6585L33.2225 10.7957V4.1406C33.2225 3.18987 32.5887 2.55605 31.638 2.55605H28.4689C27.5182 2.55605 26.8844 3.18987 26.8844 4.1406V5.56669L21.6554 1.12996C21.0215 0.654597 20.0708 0.654597 19.437 1.12996L1.05625 16.6585C0.263979 17.2923 0.739342 18.4015 1.69007 18.4015H4.70071V35.8315C4.70071 36.7823 5.33453 37.4161 6.28525 37.4161H15.7925V27.9088C15.7925 25.2151 17.8524 23.1552 20.5462 23.1552C23.2399 23.1552 25.2998 25.2151 25.2998 27.9088V37.4161H34.8071C35.7578 37.4161 36.3916 36.7823 36.3916 35.8315V18.4015H39.4023C40.353 18.4015 40.8284 17.2923 40.0361 16.6585Z" fill="url(#paint0_linear)"/>
    <defs>
        <linearGradient id="paint0_linear" x1="20.5462" y1="0.773437" x2="20.5462" y2="37.4161" gradientUnits="userSpaceOnUse">
            <stop stop-color="#4B9CFF"/>
            <stop offset="0.703125" stop-color="#4B9CFF"/>
            <stop offset="1" stop-color="#8C31FF" stop-opacity="0.8"/>
        </linearGradient>
    </defs>
</svg>
