<svg width="40" height="40" viewBox="0 0 41 40" fill="none" xmlns="http://www.w3.org/2000/svg">
 <g clip-path="url(#clip0)">
  <path d="M5.83008 25.5312C5.83008 25.5625 5.83008 25.5937 5.83008 25.625L7.0793 33.5937C7.23945 34.5625 8.16836 35.2187 9.16133 35.0625C10.1543 34.9062 10.827 34 10.6668 33.0312L10.4746 31.7812C10.6988 31.9687 10.923 32.1562 11.1793 32.3125C14.4145 34.625 18.5785 35.75 22.8707 35.0937C27.1629 34.4375 30.7824 32.1562 33.1527 29C34.3379 27.4375 35.2027 25.6562 35.6832 23.75L30.7504 22.5C30.4301 23.8125 29.8215 25.0312 29.0207 26.125C27.4191 28.25 24.9848 29.7812 22.102 30.2187C19.2191 30.6562 16.4324 29.9062 14.2543 28.3437C13.998 28.1562 13.7418 27.9375 13.4855 27.7187L14.927 27.8437C15.8559 27.9375 16.6566 27.2187 16.7527 26.25C16.8488 25.2812 16.1762 24.4063 15.2473 24.3125L7.68789 23.5937C6.85508 23.5312 6.11836 24.0937 5.89414 24.9062C5.89414 24.9687 5.86211 25.0312 5.86211 25.0938C5.86211 25.125 5.83008 25.1875 5.83008 25.2187V25.25C5.83008 25.3125 5.83008 25.375 5.83008 25.4062C5.83008 25.4375 5.83008 25.4687 5.83008 25.5312Z" fill="white"/>
  <path d="M35.1703 14.4689C35.1703 14.4377 35.1703 14.4064 35.1703 14.3752L33.9211 6.40642C33.7609 5.43767 32.832 4.78142 31.8391 4.93767C30.8461 5.09392 30.1734 6.00017 30.3336 6.96892L30.5258 8.21892C30.3016 8.03142 30.0773 7.84392 29.8211 7.68767C26.5859 5.37517 22.4219 4.25017 18.1297 4.90642C13.8375 5.50017 10.1859 7.78142 7.81563 10.9377C6.63047 12.5002 5.76563 14.2814 5.28516 16.1877L10.25 17.5002C10.5703 16.1877 11.1789 14.9689 11.9797 13.8752C13.5813 11.7502 16.0156 10.2189 18.8984 9.78142C21.7813 9.34392 24.568 10.0939 26.7461 11.6564C27.0023 11.8439 27.2586 12.0627 27.5148 12.2814L26.0734 12.1564C25.1445 12.0627 24.3438 12.7814 24.2477 13.7502C24.1516 14.7189 24.8242 15.5939 25.7531 15.6877L33.3445 16.4064C34.1773 16.4689 34.9141 15.9064 35.1383 15.0939C35.1703 15.0314 35.1703 14.9689 35.1703 14.9064C35.1703 14.8752 35.2023 14.8127 35.2023 14.7814V14.7502C35.2023 14.6877 35.2023 14.6252 35.2023 14.5939C35.1703 14.5627 35.1703 14.5314 35.1703 14.4689Z" fill="white"/>
  <path fill-rule="evenodd" clip-rule="evenodd" d="M9.80117 35.4375L11.4027 33.8125L11.4348 33.8438L16.752 28.4063L16.7199 28.375L18.3215 26.75C18.866 26.1875 18.866 25.2812 18.2895 24.75C18.0652 24.5312 17.777 24.4062 17.4887 24.375L7.65508 23.375C6.66211 23.4063 5.86133 24.2187 5.86133 25.1875L7.33477 34.7188C7.3668 35 7.52695 35.2813 7.75117 35.5C8.32773 36.0313 9.22461 36 9.80117 35.4375Z" fill="white"/>
  <path fill-rule="evenodd" clip-rule="evenodd" d="M33.6969 5.12508C33.6648 4.84383 33.5047 4.56258 33.2805 4.34383C32.7039 3.81258 31.775 3.81258 31.2305 4.37508L29.6289 6.00008L29.5969 5.96883L24.2797 11.4376L24.3117 11.4688L22.7101 13.0938C22.1656 13.6563 22.1656 14.5626 22.7422 15.0938C22.9664 15.3126 23.2547 15.4376 23.543 15.4688L33.3766 16.4688C34.3695 16.4376 35.1703 15.6251 35.1703 14.6563L33.6969 5.12508Z" fill="white"/>
 </g>
 <defs>
  <clipPath id="clip0">
   <rect width="41" height="40" fill="white"/>
  </clipPath>
 </defs>
</svg>
