<svg width="40" height="40" viewBox="0 0 42 42" fill="none" xmlns="http://www.w3.org/2000/svg">
    <g clip-path="url(#clip0)">
        <path d="M26.25 29.75H15.75V40.25H26.25V29.75Z" fill="white"/>
        <path d="M36.155 11.0075L25.9875 2.2575C25.679 1.95062 25.2672 1.76968 24.8325 1.75H7C6.53587 1.75 6.09075 1.93437 5.76256 2.26256C5.43437 2.59075 5.25 3.03587 5.25 3.5V38.5C5.25 38.9641 5.43437 39.4093 5.76256 39.7374C6.09075 40.0656 6.53587 40.25 7 40.25H12.25V28C12.25 27.5359 12.4344 27.0908 12.7626 26.7626C13.0908 26.4344 13.5359 26.25 14 26.25H28C28.4641 26.25 28.9093 26.4344 29.2374 26.7626C29.5656 27.0908 29.75 27.5359 29.75 28V40.25H35C35.4641 40.25 35.9093 40.0656 36.2374 39.7374C36.5656 39.4093 36.75 38.9641 36.75 38.5V12.3375C36.7522 12.0861 36.7002 11.8371 36.5975 11.6076C36.4948 11.3781 36.3439 11.1734 36.155 11.0075Z" fill="white"/>
    </g>
    <defs>
        <clipPath id="clip0">
            <rect width="42" height="42" fill="white"/>
        </clipPath>
    </defs>
</svg>
